<svg width="24" height="24" viewBox="0 0 24 24" fill="none" xmlns="http://www.w3.org/2000/svg">
<path d="M17.5383 9.53846C17.5383 13.2308 11.9999 17.5385 11.9999 17.5385C11.9999 17.5385 6.46143 13.2308 6.46143 9.53846C6.46143 6.52185 8.98327 4 11.9999 4C15.0165 4 17.5383 6.52185 17.5383 9.53846Z" stroke="#72777A" stroke-width="1.5" stroke-linecap="round" stroke-linejoin="round"/>
<path d="M17.0178 15.6923H18.1538L20 20H4L5.84615 15.6923H6.98215M12 11.3846C12.4896 11.3846 12.9592 11.1901 13.3054 10.8439C13.6516 10.4977 13.8462 10.0281 13.8462 9.53848C13.8462 9.04885 13.6516 8.57927 13.3054 8.23305C12.9592 7.88683 12.4896 7.69233 12 7.69233C11.5104 7.69233 11.0408 7.88683 10.6946 8.23305C10.3484 8.57927 10.1538 9.04885 10.1538 9.53848C10.1538 10.0281 10.3484 10.4977 10.6946 10.8439C11.0408 11.1901 11.5104 11.3846 12 11.3846Z" stroke="#72777A" stroke-width="1.5" stroke-linecap="round" stroke-linejoin="round"/>
</svg>
