<svg width="24" height="24" viewBox="0 0 24 24" fill="none" xmlns="http://www.w3.org/2000/svg">
<path d="M18.2792 10.9688C18.0022 9.3641 17.1889 7.90092 15.9723 6.81859C14.7557 5.73625 13.2077 5.09882 11.5817 5.01057C9.95575 4.92233 8.34793 5.38849 7.02132 6.3328C5.6947 7.27711 4.7278 8.64366 4.2788 10.2089C3.82981 11.7742 3.92528 13.4455 4.54961 14.9494C5.17394 16.4534 6.29017 17.7009 7.7157 18.488C9.14123 19.2751 10.7917 19.5551 12.397 19.2823C14.0024 19.0095 15.4677 18.1999 16.5531 16.9861" stroke="currentColor" stroke-width="1.5" stroke-linecap="round" stroke-linejoin="round"/>
<path d="M19.9406 6.13576C20.1931 8.01847 19.6417 9.62468 18.2864 10.9544C16.4069 11.2069 14.8015 10.6555 13.4702 9.30024" stroke="currentColor" stroke-width="1.5" stroke-linecap="round" stroke-linejoin="round"/>
</svg>
