<svg width="24" height="24" viewBox="0 0 24 24" fill="none" xmlns="http://www.w3.org/2000/svg">
<path d="M9.05543 20H13.9443M16.9999 9.57668C17.0066 8.58808 16.7505 7.61568 16.2581 6.76042C15.7656 5.90516 15.0548 5.19822 14.1995 4.71299C13.3441 4.22777 12.3753 3.98194 11.3938 4.00103C10.4122 4.02013 9.45359 4.30345 8.61746 4.82158C7.78134 5.33971 7.09819 6.07377 6.63892 6.94754C6.17965 7.82132 5.96101 8.80295 6.0057 9.79055C6.05039 10.7781 6.35678 11.7357 6.89307 12.5638C7.42935 13.3919 8.17597 14.0603 9.05543 14.4997V16.3459C9.05543 16.5091 9.11981 16.6656 9.23442 16.781C9.34902 16.8964 9.50446 16.9612 9.66654 16.9612H13.3332C13.4953 16.9612 13.6507 16.8964 13.7653 16.781C13.8799 16.6656 13.9443 16.5091 13.9443 16.3459V14.4997C14.8579 14.0465 15.6278 13.3456 16.1676 12.4759C16.7074 11.6063 16.9956 10.6022 16.9999 9.57668Z" stroke="#72777A" stroke-width="1.5" stroke-linecap="round" stroke-linejoin="round"/>
</svg>
