<svg width="24" height="24" viewBox="0 0 24 24" fill="none" xmlns="http://www.w3.org/2000/svg">
<g clip-path="url(#clip0_21_1260)">
<path d="M17.0282 22.4434C18.1825 22.3306 19.3347 22.1969 20.4842 22.0423C20.8573 21.9934 21.2036 21.8219 21.4687 21.5547C21.7337 21.2875 21.9024 20.9398 21.9482 20.5663C22.0854 19.464 22.2208 18.3171 22.3305 17.1429M6.97392 1.55657C5.81959 1.6694 4.6674 1.80313 3.51792 1.95771C3.14473 2.00617 2.79823 2.17729 2.53291 2.44417C2.26759 2.71104 2.09849 3.05853 2.05221 3.432C1.9074 4.57171 1.77995 5.71355 1.66992 6.85714M17.0282 1.55657C18.2111 1.66971 19.3682 1.81029 20.4842 1.95771C20.8571 2.00653 21.2032 2.1778 21.4682 2.44465C21.7332 2.71149 21.902 3.05879 21.9482 3.432C22.0854 4.536 22.2208 5.68286 22.3305 6.85714M6.97392 22.4434C5.81971 22.3295 4.66754 22.1958 3.51792 22.0423C3.14448 21.9937 2.79778 21.8224 2.53243 21.5552C2.26708 21.2879 2.09814 20.9401 2.05221 20.5663C1.90741 19.4271 1.77997 18.2859 1.66992 17.1429M12.0002 8.84914V6.64629M12.0002 8.84914C13.3494 8.84914 14.7499 8.84914 15.9928 9.01029C16.5139 9.0753 16.9996 9.30875 17.3759 9.67513C17.7521 10.0415 17.9985 10.5208 18.0774 11.04C18.1785 11.7309 18.1785 12.432 18.1785 13.6251C18.1785 14.82 18.1785 15.5211 18.0756 16.2103C17.9969 16.729 17.7511 17.2079 17.3755 17.5742C16.9999 17.9405 16.515 18.1743 15.9945 18.24C14.7516 18.4029 13.3511 18.4029 12.0019 18.4029C10.6545 18.4029 9.25392 18.4029 8.01106 18.24C7.48992 18.175 7.00426 17.9415 6.62798 17.5752C6.2517 17.2088 6.00538 16.7295 5.92649 16.2103C5.82535 15.5211 5.82535 14.82 5.82535 13.6251C5.82535 12.4303 5.82535 11.7309 5.92649 11.04C6.00538 10.5208 6.2517 10.0415 6.62798 9.67513C7.00426 9.30875 7.48992 9.0753 8.01106 9.01029C9.25392 8.84914 10.6528 8.84914 12.0002 8.84914ZM14.2236 13.9577V13.2926M9.77164 13.9577V13.2926M12.0002 6.624C13.0562 6.624 13.6511 6.02914 13.6511 4.97314C13.6511 3.91714 13.0562 3.32571 12.0002 3.32571C10.9442 3.32571 10.3511 3.92057 10.3511 4.97486C10.3511 6.02914 10.9459 6.624 12.0002 6.624Z" stroke="#72777A" stroke-width="1.5" stroke-linecap="round" stroke-linejoin="round"/>
</g>
<defs>
<clipPath id="clip0_21_1260">
<rect width="24" height="24" fill="white"/>
</clipPath>
</defs>
</svg>
