<svg width="24" height="24" viewBox="0 0 24 24" fill="none" xmlns="http://www.w3.org/2000/svg">
<g clip-path="url(#clip0_21_1268)">
<path d="M16.2856 6.85714H18.8571M16.2856 11.1429H18.8571M12.8571 1.29771V22.704M1.64564 17.604C1.78119 18.8102 2.32168 19.9348 3.17885 20.7941C4.03603 21.6535 5.15924 22.1968 6.36507 22.3354C8.19936 22.5394 10.0799 22.7143 11.9999 22.7143C13.9199 22.7143 15.8022 22.5394 17.6348 22.3337C18.8406 22.1951 19.9638 21.6518 20.821 20.7924C21.6782 19.9331 22.2187 18.8085 22.3542 17.6023C22.5496 15.78 22.7142 13.908 22.7142 12C22.7142 10.092 22.5496 8.22 22.3542 6.396C22.2187 5.18982 21.6782 4.06523 20.821 3.20587C19.9638 2.34652 18.8406 1.80318 17.6348 1.66457C15.8005 1.46229 13.9199 1.28571 11.9999 1.28571C10.0799 1.28571 8.19764 1.46057 6.36507 1.66629C5.15924 1.80489 4.03603 2.34823 3.17885 3.20759C2.32168 4.06694 1.78119 5.19153 1.64564 6.39771C1.45022 8.21829 1.28564 10.0903 1.28564 12C1.28564 13.9097 1.45022 15.78 1.64564 17.604Z" stroke="#72777A" stroke-width="1.5" stroke-linecap="round" stroke-linejoin="round"/>
</g>
<defs>
<clipPath id="clip0_21_1268">
<rect width="24" height="24" fill="white"/>
</clipPath>
</defs>
</svg>
