<svg width="24" height="24" viewBox="0 0 24 24" fill="none" xmlns="http://www.w3.org/2000/svg">
<path d="M4.6152 13.3631H7.53121V5.59862H4.61644C4.53555 5.59845 4.45542 5.61425 4.38063 5.64509C4.30585 5.67594 4.23788 5.72122 4.18063 5.77837C4.12337 5.83551 4.07794 5.90338 4.04695 5.97811C4.01595 6.05283 4 6.13293 4 6.21382V12.7479C4 12.911 4.06482 13.0675 4.18019 13.1829C4.29556 13.2982 4.45204 13.3631 4.6152 13.3631Z" stroke="#72777A" stroke-width="1.5" stroke-linecap="round" stroke-linejoin="round"/>
<path d="M7.54365 5.56264L8.43049 5.11985C8.77406 4.94868 9.15236 4.86062 9.53686 4.86186H17.6101C17.9521 4.86202 18.2822 4.9872 18.5383 5.21382C18.7944 5.44044 18.9588 5.75286 19.0005 6.09226L19.9841 12.4415C20.014 12.639 20.0017 12.8407 19.948 13.0331C19.8943 13.2255 19.8004 13.4044 19.6726 13.5579C19.5447 13.7115 19.3858 13.8361 19.2062 13.9238C19.0267 14.0114 18.8306 14.06 18.6309 14.0663H13.2281V17.6471C13.2265 17.8295 13.1884 18.0097 13.1161 18.1771C13.0437 18.3445 12.9385 18.4957 12.8066 18.6218C12.6748 18.7478 12.5191 18.8461 12.3486 18.911C12.1781 18.9758 11.9964 19.0057 11.8141 18.9991C11.5823 19.0017 11.3538 18.944 11.151 18.8318C10.9482 18.7197 10.7779 18.5568 10.6569 18.3591L7.53125 13.3631V5.59861" stroke="#72777A" stroke-width="1.5" stroke-linecap="round" stroke-linejoin="round"/>
</svg>
