<svg width="24" height="24" viewBox="0 0 24 24" fill="none" xmlns="http://www.w3.org/2000/svg">
<path d="M9 10.0235C8.99968 9.42818 9.1315 8.84018 9.38596 8.30194C9.64041 7.7637 10.0112 7.28864 10.4714 6.91104C10.9317 6.53344 11.4701 6.26271 12.0477 6.11837C12.6253 5.97403 13.2277 5.95969 13.8115 6.07638C14.3951 6.19266 14.9457 6.43681 15.4237 6.79129C15.9017 7.14576 16.2952 7.60175 16.5759 8.12646C16.8566 8.65117 17.0176 9.23157 17.0472 9.82591C17.0768 10.4202 16.9743 11.0138 16.7472 11.5638C16.4424 12.2992 15.9263 12.9277 15.2642 13.3696C14.6021 13.8116 13.8237 14.0472 13.0276 14.0466V16.7293M13.023 21.9984C12.8706 21.9984 12.7244 21.9378 12.6166 21.83C12.5089 21.7222 12.4483 21.5761 12.4483 21.4236C12.4483 21.2712 12.5089 21.125 12.6166 21.0172C12.7244 20.9095 12.8706 20.8489 13.023 20.8489C13.1754 20.8489 13.3216 20.9095 13.4294 21.0172C13.5372 21.125 13.5977 21.2712 13.5977 21.4236C13.5977 21.5761 13.5372 21.7222 13.4294 21.83C13.3216 21.9378 13.1754 21.9984 13.023 21.9984Z" stroke="#72777A" stroke-width="1.5" stroke-linecap="round" stroke-linejoin="round"/>
</svg>
