<svg width="24" height="24" viewBox="0 0 24 24" fill="none" xmlns="http://www.w3.org/2000/svg">
<path d="M4.6152 10.6369H7.53121V18.4014H4.61644C4.53555 18.4015 4.45542 18.3858 4.38063 18.3549C4.30585 18.3241 4.23788 18.2788 4.18063 18.2216C4.12337 18.1645 4.07794 18.0966 4.04695 18.0219C4.01595 17.9472 4 17.8671 4 17.7862V11.2521C4 11.089 4.06482 10.9325 4.18019 10.8171C4.29556 10.7018 4.45204 10.6369 4.6152 10.6369Z" stroke="#72777A" stroke-width="1.5" stroke-linecap="round" stroke-linejoin="round"/>
<path d="M7.54365 18.4374L8.43049 18.8802C8.77406 19.0513 9.15236 19.1394 9.53686 19.1381H17.6101C17.9521 19.138 18.2822 19.0128 18.5383 18.7862C18.7944 18.5596 18.9588 18.2471 19.0005 17.9077L19.9841 11.5585C20.014 11.361 20.0017 11.1593 19.948 10.9669C19.8943 10.7745 19.8004 10.5956 19.6726 10.4421C19.5447 10.2885 19.3858 10.1639 19.2062 10.0762C19.0267 9.9886 18.8306 9.94002 18.6309 9.93368H13.2281V6.35286C13.2265 6.17048 13.1884 5.99027 13.1161 5.82286C13.0437 5.65546 12.9385 5.50427 12.8066 5.37823C12.6748 5.25219 12.5191 5.15386 12.3486 5.08905C12.1781 5.02424 11.9964 4.99427 11.8141 5.0009C11.5823 4.99834 11.3538 5.05597 11.151 5.16815C10.9482 5.28033 10.7779 5.44323 10.6569 5.64091L7.53125 10.6369V18.4014" stroke="#72777A" stroke-width="1.5" stroke-linecap="round" stroke-linejoin="round"/>
</svg>
