<svg width="24" height="24" viewBox="0 0 24 24" fill="none" xmlns="http://www.w3.org/2000/svg">
<mask id="path-1-inside-1_13_476" fill="white">
<path fill-rule="evenodd" clip-rule="evenodd" d="M7.21053 20C6.62426 20 6.062 19.774 5.64745 19.3718C5.23289 18.9696 5 18.4241 5 17.8552V6.14477C5 5.57594 5.23289 5.03041 5.64745 4.62819C6.062 4.22597 6.62426 4 7.21053 4C7.79679 4 8.35905 4.22597 8.77361 4.62819C9.18816 5.03041 9.42105 5.57594 9.42105 6.14477V17.8524C9.42105 18.4212 9.18816 18.9667 8.77361 19.3689C8.35905 19.7712 7.79679 19.9971 7.21053 19.9971M16.7895 19.9971C16.2032 19.9971 15.641 19.7712 15.2264 19.3689C14.8118 18.9667 14.5789 18.4212 14.5789 17.8524V6.14477C14.5789 5.57594 14.8118 5.03041 15.2264 4.62819C15.641 4.22597 16.2032 4 16.7895 4C17.3757 4 17.938 4.22597 18.3526 4.62819C18.7671 5.03041 19 5.57594 19 6.14477V17.8524C19 18.4212 18.7671 18.9667 18.3526 19.3689C17.938 19.7712 17.3757 19.9971 16.7895 19.9971Z"/>
</mask>
<path d="M5 6.14477H3.5H5ZM7.21053 4V2.5V4ZM9.42105 6.14477H10.9211H9.42105ZM9.42105 17.8524H10.9211H9.42105ZM14.5789 17.8524H13.0789H14.5789ZM16.7895 4V2.5V4ZM7.21053 20V18.5C7.00771 18.5 6.82199 18.4214 6.69198 18.2953L5.64745 19.3718L4.60292 20.4484C5.30202 21.1267 6.2408 21.5 7.21053 21.5V20ZM5.64745 19.3718L6.69198 18.2953C6.5635 18.1706 6.5 18.0114 6.5 17.8552H5H3.5C3.5 18.8367 3.90228 19.7686 4.60292 20.4484L5.64745 19.3718ZM5 17.8552H6.5V6.14477H5H3.5V17.8552H5ZM5 6.14477H6.5C6.5 5.98864 6.5635 5.82939 6.69198 5.70474L5.64745 4.62819L4.60292 3.55164C3.90229 4.23143 3.5 5.16325 3.5 6.14477H5ZM5.64745 4.62819L6.69198 5.70474C6.82199 5.5786 7.00771 5.5 7.21053 5.5V4V2.5C6.2408 2.5 5.30202 2.87334 4.60292 3.55164L5.64745 4.62819ZM7.21053 4V5.5C7.41334 5.5 7.59907 5.5786 7.72908 5.70474L8.77361 4.62819L9.81813 3.55164C9.11904 2.87334 8.18025 2.5 7.21053 2.5V4ZM8.77361 4.62819L7.72908 5.70474C7.85755 5.82939 7.92105 5.98863 7.92105 6.14477H9.42105H10.9211C10.9211 5.16325 10.5188 4.23143 9.81813 3.55164L8.77361 4.62819ZM9.42105 6.14477H7.92105V17.8524H9.42105H10.9211V6.14477H9.42105ZM9.42105 17.8524H7.92105C7.92105 18.0085 7.85755 18.1678 7.72908 18.2924L8.77361 19.3689L9.81813 20.4455C10.5188 19.7657 10.9211 18.8339 10.9211 17.8524H9.42105ZM8.77361 19.3689L7.72908 18.2924C7.59907 18.4185 7.41334 18.4971 7.21053 18.4971V19.9971V21.4971C8.18025 21.4971 9.11904 21.1238 9.81813 20.4455L8.77361 19.3689ZM16.7895 19.9971V18.4971C16.5867 18.4971 16.4009 18.4185 16.2709 18.2924L15.2264 19.3689L14.1819 20.4455C14.881 21.1238 15.8197 21.4971 16.7895 21.4971V19.9971ZM15.2264 19.3689L16.2709 18.2924C16.1425 18.1677 16.0789 18.0085 16.0789 17.8524H14.5789H13.0789C13.0789 18.8339 13.4812 19.7657 14.1819 20.4455L15.2264 19.3689ZM14.5789 17.8524H16.0789V6.14477H14.5789H13.0789V17.8524H14.5789ZM14.5789 6.14477H16.0789C16.0789 5.98864 16.1425 5.82939 16.2709 5.70474L15.2264 4.62819L14.1819 3.55164C13.4812 4.23143 13.0789 5.16325 13.0789 6.14477H14.5789ZM15.2264 4.62819L16.2709 5.70474C16.4009 5.5786 16.5867 5.5 16.7895 5.5V4V2.5C15.8198 2.5 14.881 2.87334 14.1819 3.55164L15.2264 4.62819ZM16.7895 4V5.5C16.9923 5.5 17.178 5.5786 17.308 5.70474L18.3526 4.62819L19.3971 3.55164C18.698 2.87334 17.7592 2.5 16.7895 2.5V4ZM18.3526 4.62819L17.308 5.70474C17.4365 5.82939 17.5 5.98863 17.5 6.14477H19H20.5C20.5 5.16325 20.0977 4.23143 19.3971 3.55164L18.3526 4.62819ZM19 6.14477H17.5V17.8524H19H20.5V6.14477H19ZM19 17.8524H17.5C17.5 18.0085 17.4365 18.1678 17.308 18.2924L18.3526 19.3689L19.3971 20.4455C20.0977 19.7657 20.5 18.8339 20.5 17.8524H19ZM18.3526 19.3689L17.308 18.2924C17.178 18.4185 16.9923 18.4971 16.7895 18.4971V19.9971V21.4971C17.7592 21.4971 18.698 21.1238 19.3971 20.4455L18.3526 19.3689Z" fill="currentColor" mask="url(#path-1-inside-1_13_476)"/>
</svg>
