<svg width="24" height="24" viewBox="0 0 24 24" fill="none" xmlns="http://www.w3.org/2000/svg">
<path d="M11.9999 12.8571C12.2273 12.8571 12.4453 12.7668 12.606 12.6061C12.7668 12.4453 12.8571 12.2273 12.8571 12C12.8571 11.7727 12.7668 11.5547 12.606 11.3939C12.4453 11.2332 12.2273 11.1429 11.9999 11.1429C11.7726 11.1429 11.5546 11.2332 11.3938 11.3939C11.2331 11.5547 11.1428 11.7727 11.1428 12C11.1428 12.2273 11.2331 12.4453 11.3938 12.6061C11.5546 12.7668 11.7726 12.8571 11.9999 12.8571ZM5.14279 12.8571C5.37012 12.8571 5.58813 12.7668 5.74888 12.6061C5.90962 12.4453 5.99993 12.2273 5.99993 12C5.99993 11.7727 5.90962 11.5547 5.74888 11.3939C5.58813 11.2332 5.37012 11.1429 5.14279 11.1429C4.91546 11.1429 4.69744 11.2332 4.5367 11.3939C4.37595 11.5547 4.28564 11.7727 4.28564 12C4.28564 12.2273 4.37595 12.4453 4.5367 12.6061C4.69744 12.7668 4.91546 12.8571 5.14279 12.8571ZM18.8571 12.8571C19.0844 12.8571 19.3024 12.7668 19.4632 12.6061C19.6239 12.4453 19.7142 12.2273 19.7142 12C19.7142 11.7727 19.6239 11.5547 19.4632 11.3939C19.3024 11.2332 19.0844 11.1429 18.8571 11.1429C18.6297 11.1429 18.4117 11.2332 18.251 11.3939C18.0902 11.5547 17.9999 11.7727 17.9999 12C17.9999 12.2273 18.0902 12.4453 18.251 12.6061C18.4117 12.7668 18.6297 12.8571 18.8571 12.8571Z" stroke="#72777A" stroke-linecap="round" stroke-linejoin="round"/>
</svg>
