<svg width="24" height="24" viewBox="0 0 24 24" fill="none" xmlns="http://www.w3.org/2000/svg">
<g clip-path="url(#clip0_21_1267)">
<path d="M18.5434 20.3657V21.0446M18.5434 21.0446C21.2571 19.296 22.7142 16.2171 22.7142 12V11.8886L22.6199 11.8371C21.8018 11.4127 20.8947 11.1882 19.9731 11.1823H16.4931C15.7345 11.1823 15.007 11.4836 14.4705 12.02C13.9341 12.5565 13.6328 13.284 13.6328 14.0426C13.6328 14.8012 13.9341 15.5287 14.4705 16.0651C15.007 16.6015 15.7345 16.9029 16.4931 16.9029C16.7614 16.9024 17.0272 16.9549 17.2752 17.0573C17.5232 17.1597 17.7486 17.3101 17.9384 17.4998C18.1282 17.6894 18.2787 17.9147 18.3814 18.1626C18.484 18.4105 18.5367 18.6762 18.5365 18.9446V21.048L18.5434 21.0446ZM5.05536 16.0851C5.81345 16.0842 6.54023 15.7827 7.07628 15.2466C7.61233 14.7106 7.91388 13.9838 7.91479 13.2257V10.7743C7.91569 10.0162 8.21725 9.28942 8.7533 8.75337C9.28935 8.21732 10.0161 7.91576 10.7742 7.91486C11.532 7.91395 12.2585 7.61263 12.7945 7.07695C13.3305 6.54127 13.6323 5.81493 13.6336 5.05714V1.36457C13.0906 1.31231 12.5454 1.28599 11.9999 1.28571C5.14279 1.28571 1.28564 5.14286 1.28564 12C1.28564 13.5103 1.47422 14.8749 1.83764 16.0851H5.05536Z" stroke="#72777A" stroke-width="1.5" stroke-linecap="round" stroke-linejoin="round"/>
<path d="M11.9999 22.7143C18.8571 22.7143 22.7142 18.8571 22.7142 12C22.7142 5.14286 18.8571 1.28571 11.9999 1.28571C5.14279 1.28571 1.28564 5.14286 1.28564 12C1.28564 18.8571 5.14279 22.7143 11.9999 22.7143Z" stroke="#72777A" stroke-width="1.5" stroke-linecap="round" stroke-linejoin="round"/>
</g>
<defs>
<clipPath id="clip0_21_1267">
<rect width="24" height="24" fill="white"/>
</clipPath>
</defs>
</svg>
