<svg width="24" height="24" viewBox="0 0 24 24" fill="none" xmlns="http://www.w3.org/2000/svg">
<path d="M14.7694 14.2308L12.0002 17L14.7694 19.7692M9.23096 10.5385L12.0002 7.76923L9.23096 5" stroke="#72777A" stroke-width="1.5" stroke-linecap="round" stroke-linejoin="round"/>
<path d="M12 17H17.5385C18.1913 17 18.8174 16.7406 19.279 16.279C19.7407 15.8174 20 15.1913 20 14.5384V10.2307C20 9.57791 19.7407 8.95181 19.279 8.49018C18.8174 8.02855 18.1913 7.76921 17.5385 7.76921H15.6923M12 7.76921H6.46154C5.8087 7.76921 5.1826 8.02855 4.72097 8.49018C4.25934 8.95181 4 9.57791 4 10.2307V14.5384C4 15.1913 4.25934 15.8174 4.72097 16.279C5.1826 16.7406 5.8087 17 6.46154 17H8.30769" stroke="#72777A" stroke-width="1.5" stroke-linecap="round" stroke-linejoin="round"/>
</svg>
