<svg width="24" height="24" viewBox="0 0 24 24" fill="none" xmlns="http://www.w3.org/2000/svg">
<path fill-rule="evenodd" clip-rule="evenodd" d="M12.0001 0C9.403 0 7.22242 0.733714 5.69157 2.26286C4.16414 3.78857 3.42871 5.96743 3.42871 8.56457V8.61257C3.49728 10.104 3.99785 11.9023 4.84642 13.2017C5.155 13.6749 5.48243 14.124 5.78585 14.5423L5.88357 14.6794C6.22128 15.1423 6.52471 15.5674 6.78528 15.996C7.29957 16.836 7.60814 17.6246 7.60814 18.5417L7.61157 18.6206L7.60642 19.0063C7.60642 19.7537 7.66128 20.4771 7.723 21.1526V21.1577C7.78471 21.7989 8.02985 22.4211 8.44814 22.9149C8.86643 23.412 9.44757 23.76 10.1093 23.8491H10.1144C10.6921 23.9263 11.3316 23.9983 12.0001 23.9983C12.6687 23.9983 13.3081 23.9263 13.8876 23.8491H13.891C14.5527 23.7583 15.1339 23.412 15.5539 22.9149C15.967 22.4157 16.2193 21.8031 16.2773 21.1577V21.1526C16.339 20.4771 16.3939 19.7537 16.3939 19.0046C16.3939 18.8754 16.3921 18.7474 16.3887 18.6206L16.3904 18.5417C16.3904 17.6246 16.699 16.8377 17.2133 15.996C17.4756 15.5674 17.779 15.1423 18.1167 14.6777L18.2144 14.5423C18.5179 14.1257 18.8436 13.6749 19.1539 13.2017C20.0024 11.9023 20.503 10.104 20.5699 8.61257L20.5716 8.56629C20.5716 5.96914 19.8379 3.79029 18.3087 2.26114C16.7796 0.732 14.5956 0 12.0001 0ZM13.0716 17.1326C13.567 17.1583 13.9767 17.2046 14.383 17.2697C14.575 16.3749 14.9521 15.5914 15.3859 14.88C15.6961 14.3726 16.0459 13.8857 16.3801 13.4229L16.4779 13.2874C16.7864 12.864 17.0813 12.4577 17.359 12.0326C17.9624 11.1069 18.3704 9.70629 18.4287 8.54057C18.4236 6.35314 17.8081 4.79314 16.7933 3.77829C15.7716 2.75829 14.2047 2.14286 12.0001 2.14286C9.79557 2.14286 8.22871 2.76 7.207 3.77829C6.19214 4.79314 5.57671 6.35314 5.57157 8.54057C5.62985 9.70629 6.03785 11.1069 6.64128 12.0326C6.919 12.4577 7.21385 12.864 7.52243 13.2874L7.61842 13.4211C7.95442 13.884 8.30414 14.3726 8.61443 14.88C9.04814 15.5914 9.42528 16.3749 9.61728 17.2697C10.0236 17.2046 10.435 17.1583 10.9287 17.1326V14.0726C10.6556 13.9239 10.414 13.7237 10.2173 13.4829C9.43767 12.535 8.7959 11.4817 8.311 10.3543C8.21322 10.0947 8.2199 9.8074 8.32963 9.55268C8.43936 9.29796 8.64358 9.09571 8.89936 8.98847C9.15514 8.88124 9.44253 8.87736 9.70111 8.97766C9.95969 9.07796 10.1693 9.27462 10.2859 9.52629C10.6897 10.4626 11.2242 11.337 11.8733 12.1234C11.9299 12.192 11.9761 12.1989 12.0019 12.1989C12.0276 12.1989 12.0739 12.192 12.1304 12.1234C12.679 11.4531 13.2944 10.5309 13.7161 9.52629C13.8259 9.26418 14.0354 9.05642 14.2983 8.94872C14.5613 8.84102 14.8563 8.8422 15.1184 8.952C15.3805 9.0618 15.5883 9.27122 15.696 9.5342C15.8037 9.79718 15.8025 10.0922 15.6927 10.3543C15.2067 11.4819 14.5638 12.5352 13.783 13.4829C13.5773 13.7349 13.3339 13.932 13.0699 14.0726L13.0716 17.1326Z" fill="#72777A"/>
</svg>
