<svg width="24" height="24" viewBox="0 0 24 24" fill="none" xmlns="http://www.w3.org/2000/svg">
<path fill-rule="evenodd" clip-rule="evenodd" d="M18.7908 6.21942C18.9247 6.08546 19 5.90377 19 5.71432C19 5.52487 18.9247 5.34318 18.7908 5.20922C18.6568 5.07526 18.4751 5 18.2857 5C18.0962 5 17.9145 5.07526 17.7806 5.20922L12 10.9898L6.21942 5.20922C6.08546 5.07526 5.90377 5 5.71432 5C5.52487 5 5.34318 5.07526 5.20922 5.20922C5.07526 5.34318 5 5.52487 5 5.71432C5 5.90377 5.07526 6.08546 5.20922 6.21942L10.9898 12L5.20922 17.7806C5.07526 17.9145 5 18.0962 5 18.2857C5 18.4751 5.07526 18.6568 5.20922 18.7908C5.34318 18.9247 5.52487 19 5.71432 19C5.90377 19 6.08546 18.9247 6.21942 18.7908L12 13.0102L17.7806 18.7908C17.9145 18.9247 18.0962 19 18.2857 19C18.4751 19 18.6568 18.9247 18.7908 18.7908C18.9247 18.6568 19 18.4751 19 18.2857C19 18.0962 18.9247 17.9145 18.7908 17.7806L13.0102 12L18.7908 6.21942Z" fill="#72777A"/>
</svg>
