<svg width="24" height="24" viewBox="0 0 24 24" fill="none" xmlns="http://www.w3.org/2000/svg">
<path d="M9.54025 18.4493L4 20L5.55127 14.4619L15.6961 4.37028C15.8107 4.25307 15.9477 4.15993 16.0988 4.09634C16.25 4.03276 16.4124 4 16.5764 4C16.7404 4 16.9027 4.03276 17.0539 4.09634C17.2051 4.15993 17.342 4.25307 17.4567 4.37028L19.6358 6.5609C19.7512 6.67531 19.8428 6.81143 19.9053 6.9614C19.9678 7.11137 20 7.27223 20 7.43469C20 7.59716 19.9678 7.75801 19.9053 7.90799C19.8428 8.05796 19.7512 8.19407 19.6358 8.30848L9.54025 18.4493Z" stroke="#72777A" stroke-width="1.5" stroke-linecap="round" stroke-linejoin="round"/>
</svg>
