<svg width="24" height="24" viewBox="0 0 24 24" fill="none" xmlns="http://www.w3.org/2000/svg">
<g clip-path="url(#clip0_21_1256)">
<path d="M7.51718 11.2577V12M12.5229 11.2577V12M17.5269 11.2577V12M12.4286 21.9086C19.0115 21.9086 22.7143 18.2057 22.7143 11.6229C22.7143 5.04 19.0115 1.33714 12.4286 1.33714C5.84575 1.33714 2.14289 5.04 2.14289 11.6229C2.14289 13.6337 2.48746 15.3754 3.15432 16.824L1.46232 21.4749C1.4069 21.6264 1.39536 21.7905 1.42904 21.9482C1.46272 22.106 1.54025 22.2511 1.65271 22.3668C1.76516 22.4825 1.90799 22.5641 2.06476 22.6022C2.22152 22.6403 2.38587 22.6334 2.53889 22.5823L7.38175 20.9674C8.80118 21.588 10.4897 21.9103 12.4286 21.9103V21.9086Z" stroke="#72777A" stroke-width="1.5" stroke-linecap="round" stroke-linejoin="round"/>
</g>
<defs>
<clipPath id="clip0_21_1256">
<rect width="24" height="24" fill="white"/>
</clipPath>
</defs>
</svg>
