<svg width="24" height="24" viewBox="0 0 24 24" fill="none" xmlns="http://www.w3.org/2000/svg">
<path d="M11.7143 11.1429C12.8509 11.1429 13.941 10.6913 14.7447 9.8876C15.5485 9.08387 16 7.99378 16 6.85714C16 5.7205 15.5485 4.63041 14.7447 3.82669C13.941 3.02296 12.8509 2.57143 11.7143 2.57143C10.5776 2.57143 9.48756 3.02296 8.68383 3.82669C7.8801 4.63041 7.42857 5.7205 7.42857 6.85714C7.42857 7.99378 7.8801 9.08387 8.68383 9.8876C9.48756 10.6913 10.5776 11.1429 11.7143 11.1429ZM4 23.1429H19.4286V22.2137C19.4176 21.1773 19.1983 20.1537 18.7838 19.2038C18.3694 18.2538 17.7681 17.3969 17.0158 16.684C16.2635 15.971 15.3756 15.4166 14.4048 15.0537C13.4339 14.6908 12.4001 14.5268 11.3646 14.5714C9.39363 14.6649 7.53303 15.5085 6.16385 16.9293C4.79467 18.3501 4.02053 20.2407 4 22.2137V23.1429Z" stroke="currentColor" stroke-width="1.5" stroke-linecap="round" stroke-linejoin="round"/>
</svg>
