<svg width="24" height="24" viewBox="0 0 24 24" fill="none" xmlns="http://www.w3.org/2000/svg">
<path d="M8.30792 20H18.7695C19.0959 20 19.4089 19.8703 19.6397 19.6395C19.8706 19.4087 20.0002 19.0956 20.0002 18.7692V8.30768C20.0002 7.98126 19.8706 7.66821 19.6397 7.4374C19.4089 7.20659 19.0959 7.07692 18.7695 7.07692H8.30792C7.9815 7.07692 7.66845 7.20659 7.43763 7.4374C7.20682 7.66821 7.07715 7.98126 7.07715 8.30768V18.7692C7.07715 19.0956 7.20682 19.4087 7.43763 19.6395C7.66845 19.8703 7.9815 20 8.30792 20Z" stroke="#72777A" stroke-width="1.5" stroke-linecap="round" stroke-linejoin="round"/>
<path d="M4 16.3077V5.23077C4 4.90435 4.12967 4.5913 4.36048 4.36048C4.5913 4.12967 4.90435 4 5.23077 4H16.3077" stroke="#72777A" stroke-width="1.5" stroke-linecap="round" stroke-linejoin="round"/>
</svg>
