<svg width="24" height="24" viewBox="0 0 24 24" fill="none" xmlns="http://www.w3.org/2000/svg">
<path d="M6.23633 6.75391C6.43908 5.29946 7.84457 4.4031 9.16992 4.88184H9.1709C12.5388 6.09408 15.6712 7.96163 17.8242 10.7539L17.8252 10.7559C18.0996 11.1098 18.2499 11.5482 18.25 12.001C18.25 12.454 18.0997 12.893 17.8252 13.2471L17.8242 13.249C15.6715 16.0409 12.5394 17.903 9.16797 19.1182H9.16699C7.8457 19.5961 6.43841 18.6995 6.2334 17.2451L6.05664 15.9189C5.88713 14.5487 5.75002 13.0941 5.75 11.999C5.75 10.5417 5.99414 8.43937 6.23535 6.75684L6.23633 6.75391Z" stroke="#72777A" stroke-width="1.5"/>
</svg>
