<svg width="24" height="24" viewBox="0 0 24 24" fill="none" xmlns="http://www.w3.org/2000/svg">
<path d="M14.5016 7.38049C11.7061 8.16897 11.5115 8.19456 9.1333 9.53344L14.5016 7.38049ZM14.5016 16.6195C11.7074 15.831 11.5128 15.8054 9.13458 14.4678L14.5016 16.6195Z" fill="#72777A"/>
<path d="M14.5016 7.38049C11.7061 8.16897 11.5115 8.19456 9.1333 9.53344M14.5016 16.6195C11.7074 15.831 11.5128 15.8054 9.13458 14.4678" stroke="#72777A" stroke-width="1.5" stroke-linecap="round" stroke-linejoin="round"/>
<path d="M17.2381 9.47328C18.9904 9.47328 19.976 8.48768 19.976 6.73664C19.976 4.9856 18.9904 4 17.2368 4C15.4858 4 14.5002 4.9856 14.5002 6.73664C14.5002 8.48896 15.4858 9.47328 17.2368 9.47328H17.2381ZM17.2381 20C18.9904 20 19.976 19.0144 19.976 17.2634C19.976 15.511 18.9904 14.5267 17.2381 14.5267C15.4858 14.5267 14.5014 15.5123 14.5014 17.2634C14.5014 19.0144 15.487 20 17.2381 20ZM7.73792 14.7366C9.48896 14.7366 10.4746 13.751 10.4746 12C10.4746 10.249 9.48896 9.26336 7.73792 9.26336C5.9856 9.26336 5 10.249 5 12C5 13.751 5.9856 14.7366 7.73792 14.7366Z" stroke="#72777A" stroke-width="1.5" stroke-linecap="round" stroke-linejoin="round"/>
</svg>
