<svg width="24" height="24" viewBox="0 0 24 24" fill="none" xmlns="http://www.w3.org/2000/svg">
<path d="M10.7692 16.0769L9.53846 19.1538M13.2308 16.0769L14.4615 19.1538M8.30769 19.1538H15.6923M19.3846 5H4.61538C4.45217 5 4.29565 5.06484 4.18024 5.18024C4.06483 5.29565 4 5.45217 4 5.61538V15.4615C4 15.6247 4.06483 15.7813 4.18024 15.8967C4.29565 16.0121 4.45217 16.0769 4.61538 16.0769H19.3846C19.5478 16.0769 19.7044 16.0121 19.8198 15.8967C19.9352 15.7813 20 15.6247 20 15.4615V5.61538C20 5.45217 19.9352 5.29565 19.8198 5.18024C19.7044 5.06484 19.5478 5 19.3846 5Z" stroke="#72777A" stroke-width="1.5" stroke-linecap="round" stroke-linejoin="round"/>
<path d="M8.92289 8.99998L6.76904 10.8461L8.6152 12.3846M15.3844 9.30767L17.2306 10.8461L15.0767 12.6923M11.0767 13.3077L12.9229 7.76921" stroke="#72777A" stroke-width="1.5" stroke-linecap="round" stroke-linejoin="round"/>
</svg>
