<svg width="24" height="24" viewBox="0 0 24 24" fill="none" xmlns="http://www.w3.org/2000/svg">
<path d="M7.39549 18.5897H9.96692M19.5789 6.72L3.05149 11.2389L2.09664 7.79486C2.03655 7.5775 2.01994 7.35042 2.04776 7.12663C2.07558 6.90285 2.14728 6.68675 2.25875 6.49071C2.37022 6.29468 2.51928 6.12257 2.69738 5.98424C2.87548 5.84591 3.07912 5.74407 3.29664 5.68457L18.1766 1.61486C18.6142 1.49488 19.0815 1.55328 19.4761 1.77725C19.8707 2.00123 20.1604 2.3725 20.2818 2.80971L20.7789 4.608C20.839 4.82536 20.8556 5.05244 20.8278 5.27622C20.8 5.50001 20.7283 5.71611 20.6168 5.91214C20.5053 6.10817 20.3563 6.28029 20.1782 6.41862C20.0001 6.55695 19.7964 6.65878 19.5789 6.71829M9.00692 4.14343L7.89435 9.92571M15.0258 2.49771L13.9149 8.28M3.10978 12.1611V19.0183C3.10978 19.9276 3.471 20.7997 4.11398 21.4427C4.75697 22.0856 5.62904 22.4469 6.53835 22.4469H18.5383C19.4477 22.4469 20.3197 22.0856 20.9627 21.4427C21.6057 20.7997 21.9669 19.9276 21.9669 19.0183V13.8754C21.9669 13.4208 21.7863 12.9847 21.4648 12.6632C21.1433 12.3418 20.7073 12.1611 20.2526 12.1611H3.10978Z" stroke="#72777A" stroke-width="1.5" stroke-linecap="round" stroke-linejoin="round"/>
</svg>
