<svg width="24" height="24" viewBox="0 0 24 24" fill="none" xmlns="http://www.w3.org/2000/svg">
<path d="M10.8927 3.02571C10.7777 2.71215 10.5727 2.43949 10.3034 2.24189C10.0342 2.04429 9.71257 1.93053 9.37895 1.91486C7.40487 1.80774 5.42596 1.82721 3.45438 1.97314C3.05424 2.0044 2.67762 2.1745 2.38962 2.45404C2.10163 2.73358 1.92039 3.10498 1.87723 3.504C1.29952 8.53714 1.10752 13.5891 1.70923 18.6343C1.91495 20.3451 3.31723 21.5897 4.9938 21.7714C9.69264 22.2844 14.4336 22.2804 19.1315 21.7594C19.9336 21.6708 20.6823 21.314 21.2564 20.7468C21.8304 20.1796 22.1962 19.4353 22.2944 18.6343C22.6681 15.5143 22.7658 12.3189 22.5344 8.4C22.4892 7.61392 22.1616 6.87061 21.612 6.30681C21.0624 5.74301 20.3276 5.39664 19.5429 5.33143C17.2389 5.14286 15.6361 5.13257 12.8058 5.07257C12.4627 5.06495 12.1297 4.9545 11.8501 4.75553C11.5704 4.55657 11.3569 4.27824 11.2372 3.95657L10.8944 3.02743L10.8927 3.02571Z" stroke="#72777A" stroke-width="1.5" stroke-linejoin="round"/>
<path d="M1.61475 17.6143C2.76702 15.9832 4.16671 14.5419 5.76332 13.3423C6.81417 12.5297 8.27646 12.4629 9.32732 13.2771C12.2039 15.504 14.6639 18.7937 16.3233 22.0114M16.4467 13.7434C17.8696 13.7434 18.6685 12.9429 18.6685 11.5217C18.6685 10.0989 17.8696 9.3 16.4467 9.3C15.0239 9.3 14.225 10.0989 14.225 11.5217C14.225 12.9446 15.0239 13.7434 16.4467 13.7434Z" stroke="#72777A" stroke-width="1.5" stroke-linecap="round" stroke-linejoin="round"/>
</svg>
