<svg width="24" height="24" viewBox="0 0 24 24" fill="none" xmlns="http://www.w3.org/2000/svg">
<path d="M5 7.69231H19M9.08333 7.69231V7.07692C9.08333 6.26087 9.39062 5.47824 9.93761 4.90121C10.4846 4.32417 11.2265 4 12 4C12.7735 4 13.5154 4.32417 14.0624 4.90121C14.6094 5.47824 14.9167 6.26087 14.9167 7.07692V7.69231M10.25 11.3858V16.3114M13.75 11.3858V16.3114M6.75 7.69231H17.25V18.7692C17.25 19.0957 17.1271 19.4087 16.9083 19.6395C16.6895 19.8703 16.3928 20 16.0833 20H7.91667C7.60725 20 7.3105 19.8703 7.09171 19.6395C6.87292 19.4087 6.75 19.0957 6.75 18.7692V7.69231Z" stroke="#72777A" stroke-width="1.5" stroke-linecap="round" stroke-linejoin="round"/>
</svg>
