<svg width="24" height="24" viewBox="0 0 24 24" fill="none" xmlns="http://www.w3.org/2000/svg">
<path d="M10.9318 18.2257C9.04806 20.1218 5.84685 20.7497 4 18.8536C6.46247 16.3049 4 15.0737 5.84685 13.2269C6.17114 12.8656 6.56568 12.5743 7.00637 12.3707C7.44706 12.1671 7.92463 12.0555 8.40991 12.0428C8.89519 12.03 9.37797 12.1163 9.82876 12.2964C10.2795 12.4766 10.6889 12.7467 11.0317 13.0904C11.3745 13.4341 11.6437 13.8441 11.8227 14.2953C12.0018 14.7465 12.0869 15.2295 12.0729 15.7148C12.059 16.2 11.9462 16.6773 11.7416 17.1175C11.5369 17.5577 11.2446 17.9515 10.8826 18.2749L10.9318 18.2257Z" stroke="#72777A" stroke-width="1.5" stroke-linecap="round" stroke-linejoin="round"/>
<path d="M9.16504 12.1015L15.6967 4.81753C16.6251 3.77344 18.3008 3.72173 19.2919 4.70672C20.2769 5.69786 20.2252 7.37357 19.1811 8.30192L11.9698 14.7597" stroke="#72777A" stroke-width="1.5" stroke-linecap="round" stroke-linejoin="round"/>
</svg>
