<svg width="24" height="24" viewBox="0 0 24 24" fill="none" xmlns="http://www.w3.org/2000/svg">
<g clip-path="url(#clip0_21_1266)">
<path d="M10.2856 13.7143L11.9999 14.5714M11.9999 14.5714L13.7141 13.7143M11.9999 14.5714V16.3886M8.57129 17.1429L8.80615 17.3794C8.98557 17.559 9.20263 17.6965 9.44164 17.7819C9.68066 17.8674 9.93568 17.8987 10.1883 17.8736C10.4409 17.8485 10.6847 17.7676 10.9023 17.6368C11.1198 17.506 11.3056 17.3285 11.4461 17.1171L11.9999 16.2857L12.5536 17.1171C12.6942 17.3285 12.8799 17.506 13.0975 17.6368C13.315 17.7676 13.5589 17.8485 13.8115 17.8736C14.064 17.8987 14.3191 17.8674 14.5581 17.7819C14.7971 17.6965 15.0142 17.559 15.1936 17.3794L15.4284 17.1429" stroke="#72777A" stroke-width="1.5" stroke-linecap="round" stroke-linejoin="round"/>
<path d="M9.42836 5.14286L6.43351 1.71943C5.39122 0.528 3.42836 1.26514 3.42836 2.84743V10.2857L0.856934 12C0.856934 18.3806 4.86151 22.2857 11.9998 22.2857C19.1381 22.2857 23.1426 18.3806 23.1426 12L20.5712 10.2857V2.84743C20.5712 1.26514 18.6101 0.528 17.5661 1.71943L14.5712 5.14286M8.57122 10.2857V11.1429M15.4284 10.2857V11.1429" stroke="#72777A" stroke-width="1.5" stroke-linecap="round" stroke-linejoin="round"/>
<path d="M7.71387 5.76C8.28472 5.47371 9.42815 4.90286 11.9996 4.90286C14.571 4.90286 15.7144 5.47371 16.2853 5.76" stroke="#72777A" stroke-width="1.5" stroke-linecap="round" stroke-linejoin="round"/>
</g>
<defs>
<clipPath id="clip0_21_1266">
<rect width="24" height="24" fill="white"/>
</clipPath>
</defs>
</svg>
