<svg width="97" height="24" viewBox="0 0 97 24" fill="none" xmlns="http://www.w3.org/2000/svg">
<path d="M7.29101 20.824L2.00001 22L3.17601 16.709C2.4017 15.2603 1.9977 13.6426 2.00001 12C2.00001 6.477 6.47701 2 12 2C17.523 2 22 6.477 22 12C22 17.523 17.523 22 12 22C10.3574 22.0023 8.73969 21.5983 7.29101 20.824ZM7.00001 12C7.00001 13.3261 7.52679 14.5979 8.46448 15.5355C9.40216 16.4732 10.6739 17 12 17C13.3261 17 14.5979 16.4732 15.5355 15.5355C16.4732 14.5979 17 13.3261 17 12H15C15 12.7956 14.6839 13.5587 14.1213 14.1213C13.5587 14.6839 12.7957 15 12 15C11.2044 15 10.4413 14.6839 9.87869 14.1213C9.31608 13.5587 9.00001 12.7956 9.00001 12H7.00001Z" fill="#0070F0"/>
<path d="M36.4297 18L35.6016 15.2812H31.4375L30.6094 18H28L32.0312 6.53125H34.9922L39.0391 18H36.4297ZM35.0234 13.25C34.2578 10.7865 33.8255 9.39323 33.7266 9.07031C33.6328 8.7474 33.5651 8.49219 33.5234 8.30469C33.3516 8.97135 32.8594 10.6198 32.0469 13.25H35.0234ZM48.3594 18H45.9766V12.8984C45.9766 12.2682 45.8646 11.7969 45.6406 11.4844C45.4167 11.1667 45.0599 11.0078 44.5703 11.0078C43.9036 11.0078 43.4219 11.2318 43.125 11.6797C42.8281 12.1224 42.6797 12.8594 42.6797 13.8906V18H40.2969V9.26562H42.1172L42.4375 10.3828H42.5703C42.8359 9.96094 43.2005 9.64323 43.6641 9.42969C44.1328 9.21094 44.6641 9.10156 45.2578 9.10156C46.2734 9.10156 47.0443 9.3776 47.5703 9.92969C48.0964 10.4766 48.3594 11.2682 48.3594 12.3047V18ZM49.5625 9.26562H52.1719L53.8203 14.1797C53.9609 14.6068 54.0573 15.112 54.1094 15.6953H54.1562C54.2135 15.1589 54.3255 14.6536 54.4922 14.1797L56.1094 9.26562H58.6641L54.9688 19.1172C54.6302 20.0286 54.1458 20.7109 53.5156 21.1641C52.8906 21.6172 52.1589 21.8438 51.3203 21.8438C50.9089 21.8438 50.5052 21.7995 50.1094 21.7109V19.8203C50.3958 19.888 50.7083 19.9219 51.0469 19.9219C51.4688 19.9219 51.8359 19.7917 52.1484 19.5312C52.4661 19.276 52.7135 18.888 52.8906 18.3672L53.0312 17.9375L49.5625 9.26562ZM64.9609 8.42969C64.0495 8.42969 63.3438 8.77344 62.8438 9.46094C62.3438 10.1432 62.0938 11.0964 62.0938 12.3203C62.0938 14.8672 63.0495 16.1406 64.9609 16.1406C65.763 16.1406 66.7344 15.9401 67.875 15.5391V17.5703C66.9375 17.9609 65.8906 18.1562 64.7344 18.1562C63.0729 18.1562 61.8021 17.6536 60.9219 16.6484C60.0417 15.638 59.6016 14.1901 59.6016 12.3047C59.6016 11.1172 59.8177 10.0781 60.25 9.1875C60.6823 8.29167 61.3021 7.60677 62.1094 7.13281C62.9219 6.65365 63.8724 6.41406 64.9609 6.41406C66.0703 6.41406 67.1849 6.68229 68.3047 7.21875L67.5234 9.1875C67.0964 8.98438 66.6667 8.80729 66.2344 8.65625C65.8021 8.50521 65.3776 8.42969 64.9609 8.42969ZM78.1875 18H75.8047V12.8984C75.8047 11.638 75.3359 11.0078 74.3984 11.0078C73.7318 11.0078 73.25 11.2344 72.9531 11.6875C72.6562 12.1406 72.5078 12.875 72.5078 13.8906V18H70.125V5.84375H72.5078V8.32031C72.5078 8.51302 72.4896 8.96615 72.4531 9.67969L72.3984 10.3828H72.5234C73.0547 9.52865 73.8984 9.10156 75.0547 9.10156C76.0807 9.10156 76.8594 9.3776 77.3906 9.92969C77.9219 10.4818 78.1875 11.2734 78.1875 12.3047V18ZM86.1875 18L85.7266 16.8125H85.6641C85.263 17.3177 84.849 17.6693 84.4219 17.8672C84 18.0599 83.4479 18.1562 82.7656 18.1562C81.9271 18.1562 81.2656 17.9167 80.7812 17.4375C80.3021 16.9583 80.0625 16.276 80.0625 15.3906C80.0625 14.4635 80.3854 13.7812 81.0312 13.3438C81.6823 12.901 82.6615 12.6562 83.9688 12.6094L85.4844 12.5625V12.1797C85.4844 11.2943 85.0312 10.8516 84.125 10.8516C83.4271 10.8516 82.6068 11.0625 81.6641 11.4844L80.875 9.875C81.8802 9.34896 82.9948 9.08594 84.2188 9.08594C85.3906 9.08594 86.2891 9.34115 86.9141 9.85156C87.5391 10.362 87.8516 11.138 87.8516 12.1797V18H86.1875ZM85.4844 13.9531L84.5625 13.9844C83.8698 14.0052 83.3542 14.1302 83.0156 14.3594C82.6771 14.5885 82.5078 14.9375 82.5078 15.4062C82.5078 16.0781 82.8932 16.4141 83.6641 16.4141C84.2161 16.4141 84.6562 16.2552 84.9844 15.9375C85.3177 15.6198 85.4844 15.1979 85.4844 14.6719V13.9531ZM93.9922 16.2578C94.4089 16.2578 94.9089 16.1667 95.4922 15.9844V17.7578C94.8984 18.0234 94.1693 18.1562 93.3047 18.1562C92.3516 18.1562 91.6562 17.9167 91.2188 17.4375C90.7865 16.9531 90.5703 16.2292 90.5703 15.2656V11.0547H89.4297V10.0469L90.7422 9.25L91.4297 7.40625H92.9531V9.26562H95.3984V11.0547H92.9531V15.2656C92.9531 15.6042 93.0469 15.8542 93.2344 16.0156C93.4271 16.1771 93.6797 16.2578 93.9922 16.2578Z" fill="black"/>
</svg>
